<?xml version="1.0" standalone="no"?>
<!DOCTYPE svg PUBLIC "-//W3C//DTD SVG 20010904//EN"
 "http://www.w3.org/TR/2001/REC-SVG-20010904/DTD/svg10.dtd">
<svg version="1.0" xmlns="http://www.w3.org/2000/svg"
 width="1250.000000pt" height="1250.000000pt" viewBox="0 0 1250.000000 1250.000000"
 preserveAspectRatio="xMidYMid meet">
<metadata>
Created by potrace 1.14, written by Peter Selinger 2001-2017
</metadata>
<g transform="translate(0.000000,1250.000000) scale(0.100000,-0.100000)"
fill="#000000" stroke="none">
<path d="M210 11415 c-130 -34 -213 -147 -209 -282 4 -128 83 -231 204 -265
73 -21 12008 -19 12070 1 120 40 198 156 194 284 -4 110 -70 205 -175 254 -37
17 -270 18 -6039 19 -4627 1 -6010 -2 -6045 -11z"/>
<path d="M2788 9522 c-14 -2 -28 -9 -31 -15 -9 -23 -469 -1103 -482 -1132 -7
-16 -77 -181 -155 -365 -78 -184 -150 -354 -161 -377 -10 -24 -19 -45 -19 -48
0 -2 -11 -28 -24 -57 -13 -29 -56 -129 -96 -223 -39 -93 -78 -183 -85 -200 -8
-16 -53 -122 -100 -235 -89 -210 -102 -240 -128 -300 -8 -19 -86 -201 -172
-405 -87 -203 -166 -390 -177 -415 -10 -25 -23 -54 -28 -65 -4 -11 -15 -36
-23 -55 -8 -19 -92 -217 -187 -440 -94 -223 -178 -421 -187 -440 -30 -69 -43
-98 -138 -325 -54 -126 -105 -248 -115 -270 -10 -22 -43 -101 -75 -175 -31
-74 -63 -148 -71 -165 -7 -16 -52 -122 -99 -235 -48 -113 -93 -218 -100 -235
-20 -43 -135 -317 -135 -321 0 -2 326 -4 724 -4 l723 0 38 92 c20 51 43 107
50 123 8 17 28 66 45 110 18 44 38 94 45 110 7 17 43 104 80 195 37 91 73 178
81 194 8 16 14 33 14 38 0 5 11 34 25 64 14 30 25 57 25 60 0 3 6 20 14 37 8
18 50 120 94 227 l80 195 1362 1 c1244 1 1361 0 1369 -15 5 -9 39 -90 75 -181
37 -91 70 -174 75 -185 5 -11 13 -31 19 -45 5 -14 17 -41 25 -60 8 -19 59
-143 112 -275 53 -132 108 -264 121 -293 13 -29 24 -55 24 -59 0 -4 30 -80 67
-170 l66 -163 744 0 c409 0 743 2 743 4 0 3 -39 96 -60 141 -5 11 -48 112 -96
225 -47 113 -92 219 -99 235 -8 17 -41 95 -75 175 -33 80 -67 159 -75 175 -7
17 -18 43 -24 58 -6 15 -115 272 -242 570 -127 298 -249 585 -271 637 -22 52
-51 119 -64 148 -13 29 -24 55 -24 57 0 2 -11 29 -25 59 -14 30 -25 57 -25 60
0 3 -11 29 -24 58 -13 29 -61 141 -107 248 -45 107 -90 213 -100 235 -10 22
-43 101 -74 175 -31 74 -67 159 -81 188 -13 29 -24 55 -24 57 0 3 -9 24 -19
48 -11 23 -45 103 -76 177 -32 74 -63 149 -70 165 -8 17 -98 228 -200 470
-103 242 -220 517 -260 610 -40 94 -123 289 -185 435 -62 146 -163 384 -225
530 -133 312 -220 518 -228 543 -4 10 -17 17 -34 18 -104 2 -1243 3 -1265 1z
m684 -1884 c37 -90 114 -280 173 -423 58 -143 114 -280 125 -305 11 -25 83
-200 160 -390 149 -365 194 -476 215 -525 33 -75 105 -258 105 -265 0 -4 -382
-7 -850 -7 -467 0 -850 3 -850 6 0 9 67 171 80 193 6 10 10 22 10 28 0 6 9 29
19 53 11 23 34 78 51 122 18 44 38 94 45 110 7 17 43 104 80 195 70 173 160
391 174 425 28 63 54 129 212 517 96 235 176 428 179 428 3 0 35 -73 72 -162z"/>
<path d="M6883 9522 l-31 -3 3 -1987 c1 -1093 5 -2014 8 -2047 4 -33 9 -88 12
-122 3 -34 8 -75 11 -90 2 -15 6 -41 9 -58 2 -16 7 -48 10 -70 3 -22 8 -51 11
-65 2 -14 7 -38 10 -55 12 -75 69 -290 103 -390 147 -430 359 -757 671 -1035
321 -286 810 -504 1286 -575 22 -4 50 -8 64 -10 14 -3 50 -7 80 -11 30 -3 63
-8 73 -10 127 -23 793 -23 887 1 8 2 40 6 70 10 30 3 66 7 80 10 176 29 230
40 329 65 597 150 1061 455 1387 910 97 136 163 253 253 453 66 146 140 385
180 585 32 160 40 212 56 367 4 33 9 71 13 85 3 14 8 930 9 2035 l4 2010 -706
-1 c-388 -1 -707 -3 -710 -6 -2 -2 -6 -893 -8 -1979 -1 -1086 -6 -1985 -9
-1999 -4 -14 -9 -45 -12 -70 -55 -428 -259 -783 -559 -974 -99 -64 -283 -145
-361 -160 -6 -2 -36 -8 -66 -14 -137 -29 -227 -37 -395 -36 -589 2 -1018 267
-1222 754 -41 97 -71 187 -88 260 0 3 -5 23 -10 45 -4 22 -10 47 -12 55 -8 39
-23 153 -32 255 -4 50 -8 936 -9 1970 0 1034 -1 1885 -1 1890 -1 9 -1299 16
-1388 7z"/>
<path d="M184 1624 c-95 -34 -172 -133 -181 -233 -12 -128 45 -234 154 -287
l58 -29 6035 1 6035 1 47 21 c174 78 223 308 95 447 -23 25 -64 56 -92 70
l-50 24 -6030 0 c-5262 -1 -6035 -2 -6071 -15z"/>
</g>
</svg>
